<svg width="20" height="20" viewBox="0 0 20 20" fill="none" xmlns="http://www.w3.org/2000/svg">
<path fill-rule="evenodd" clip-rule="evenodd" d="M7.5999 2.79999C4.94894 2.79999 2.7999 4.94903 2.7999 7.59999C2.7999 10.2509 4.94894 12.4 7.5999 12.4C10.2508 12.4 12.3999 10.2509 12.3999 7.59999C12.3999 4.94903 10.2508 2.79999 7.5999 2.79999ZM0.399902 7.59999C0.399902 3.62354 3.62345 0.399994 7.5999 0.399994C11.5763 0.399994 14.7999 3.62354 14.7999 7.59999C14.7999 9.15499 14.3069 10.5948 13.4687 11.7718L19.2484 17.5515C19.717 18.0201 19.717 18.7799 19.2484 19.2485C18.7798 19.7171 18.02 19.7171 17.5514 19.2485L11.7717 13.4688C10.5947 14.307 9.1549 14.8 7.5999 14.8C3.62345 14.8 0.399902 11.5764 0.399902 7.59999Z" fill="#FE8A00"/>
</svg>
